<svg width="243" height="202" viewBox="0 0 243 202" fill="none" xmlns="http://www.w3.org/2000/svg">
<g clip-path="url(#clip0_0_1)">
<path d="M118.391 162.035C147.415 162.035 170.943 159.257 170.943 155.83C170.943 152.404 147.415 149.626 118.391 149.626C89.3674 149.626 65.8391 152.404 65.8391 155.83C65.8391 159.257 89.3674 162.035 118.391 162.035Z" fill="#F0F0F0"/>
<path fill-rule="evenodd" clip-rule="evenodd" d="M172.337 117.897C175.271 110.37 176.782 102.302 176.782 94.1553H167.585C167.585 101.056 166.317 107.89 163.852 114.266C161.387 120.642 157.774 126.435 153.219 131.315C148.664 136.195 143.257 140.066 137.306 142.706C131.356 145.348 124.978 146.707 118.537 146.707C112.096 146.707 105.718 145.348 99.7668 142.706C93.816 140.066 88.4089 136.195 83.8544 131.315C79.2998 126.435 75.687 120.642 73.2221 114.266C70.7572 107.89 69.4885 101.056 69.4885 94.1553H60C60 102.302 61.5103 110.37 64.4447 117.897C67.3791 125.424 71.6802 132.263 77.1023 138.024C82.5243 143.785 88.9613 148.355 96.0456 151.473C103.13 154.59 110.723 156.195 118.391 156.195C126.059 156.195 133.652 154.59 140.736 151.473C147.82 148.355 154.257 143.785 159.68 138.024C165.101 132.263 169.402 125.424 172.337 117.897Z" fill="#F0F0F0"/>
<path fill-rule="evenodd" clip-rule="evenodd" d="M159.056 112.31C161.234 106.677 162.378 100.648 162.426 94.5538C157.416 95.3399 146.477 97.2558 139.193 99.9944C133.408 102.169 129.47 105.937 125.698 109.546C120.803 114.23 116.186 118.647 108.173 118.971C101.804 119.229 97.9094 118.707 92.1151 116.052C81.9956 111.415 73.8679 94.1553 73.8679 94.1553C73.8679 100.386 75.0133 106.555 77.2385 112.31C79.4638 118.067 82.7254 123.297 86.8372 127.702C90.9489 132.108 95.8302 135.603 101.202 137.986C106.575 140.371 112.333 141.598 118.148 141.598C123.963 141.598 129.721 140.371 135.093 137.986C140.465 135.603 145.346 132.108 149.458 127.702C153.57 123.297 156.832 118.067 159.056 112.31Z" fill="#F0F0F0"/>
<path fill-rule="evenodd" clip-rule="evenodd" d="M181.321 107.055C179.582 105.333 177.504 103.991 175.22 103.115L168.886 119.616L159.869 134.819C161.973 136.067 164.314 136.865 166.743 137.161C169.171 137.458 171.635 137.247 173.978 136.542C176.321 135.837 178.492 134.653 180.354 133.066C182.216 131.478 183.728 129.521 184.794 127.319C185.861 125.117 186.458 122.717 186.549 120.272C186.64 117.827 186.222 115.39 185.322 113.115C184.422 110.839 183.059 108.776 181.321 107.055ZM177.048 112.594C176.028 111.584 174.808 110.796 173.467 110.281L169.749 119.968L164.456 128.891C165.692 129.624 167.065 130.092 168.491 130.266C169.917 130.44 171.363 130.317 172.738 129.903C174.114 129.489 175.388 128.794 176.481 127.862C177.574 126.931 178.462 125.782 179.087 124.489C179.713 123.197 180.064 121.788 180.117 120.353C180.17 118.917 179.925 117.487 179.397 116.151C178.869 114.816 178.069 113.605 177.048 112.594Z" fill="#F0F0F0"/>
<path d="M102.337 21.8965C102.337 21.8965 100.498 33.0415 102.337 39.7787C105.368 50.8893 119.943 50.655 121.678 62.0401C123.29 72.6108 111.825 87.5861 111.825 87.5861C111.825 87.5861 113.575 77.1166 111.825 70.7987C108.916 60.2935 95.6376 60.6245 93.2129 49.997C90.6465 38.7482 102.337 21.8965 102.337 21.8965Z" fill="#F0F0F0"/>
<path d="M108.172 33.5746C104.316 20.3335 119.121 0 119.121 0C119.121 0 113.355 17.9053 116.931 28.4654C120.683 39.5443 134.822 38.9454 137.368 50.3619C140.354 63.7512 123.135 82.4768 123.135 82.4768C123.135 82.4768 131.951 65.4023 128.974 54.7412C125.857 43.5785 111.413 44.702 108.172 33.5746Z" fill="#F0F0F0"/>
</g>
<path d="M5.144 198.28C5.144 198.963 5.22933 199.464 5.4 199.784C5.592 200.083 5.944 200.296 6.456 200.424C6.98933 200.552 7.82133 200.616 8.952 200.616C9.016 200.616 9.048 200.68 9.048 200.808C9.048 200.936 9.016 201 8.952 201C8.07733 201 7.39467 200.989 6.904 200.968L4.12 200.936L1.976 200.968C1.57067 200.989 1.02667 201 0.344 201C0.301333 201 0.28 200.936 0.28 200.808C0.28 200.68 0.301333 200.616 0.344 200.616C1.15467 200.616 1.74133 200.563 2.104 200.456C2.488 200.349 2.744 200.147 2.872 199.848C3 199.528 3.064 199.048 3.064 198.408V183.592C3.064 182.952 3 182.483 2.872 182.184C2.744 181.885 2.488 181.683 2.104 181.576C1.74133 181.448 1.15467 181.384 0.344 181.384C0.301333 181.384 0.28 181.32 0.28 181.192C0.28 181.064 0.301333 181 0.344 181L1.944 181.032C2.84 181.075 3.55467 181.096 4.088 181.096C4.62133 181.096 5.21867 181.064 5.88 181C6.136 181 6.54133 180.989 7.096 180.968C7.65067 180.925 8.13067 180.904 8.536 180.904C10.4987 180.904 12.0667 181.341 13.24 182.216C14.4347 183.091 15.032 184.424 15.032 186.216C15.032 187.624 14.68 188.808 13.976 189.768C13.2933 190.728 12.408 191.443 11.32 191.912C10.2533 192.381 9.144 192.616 7.992 192.616C7.352 192.616 6.82933 192.563 6.424 192.456C6.36 192.456 6.328 192.403 6.328 192.296C6.328 192.232 6.33867 192.168 6.36 192.104C6.40267 192.04 6.44533 192.019 6.488 192.04C6.82933 192.125 7.21333 192.168 7.64 192.168C9.048 192.168 10.232 191.709 11.192 190.792C12.1733 189.875 12.664 188.552 12.664 186.824C12.664 185.139 12.2053 183.816 11.288 182.856C10.3707 181.875 9.19733 181.384 7.768 181.384C7 181.384 6.44533 181.427 6.104 181.512C5.76267 181.597 5.51733 181.8 5.368 182.12C5.21867 182.419 5.144 182.931 5.144 183.656V198.28ZM28.7175 199.272C28.8028 199.272 28.8562 199.325 28.8775 199.432C28.8988 199.517 28.8668 199.581 28.7815 199.624L25.4855 201.192C25.4002 201.235 25.3148 201.256 25.2295 201.256C24.9522 201.256 24.7068 201.075 24.4935 200.712C24.2802 200.328 24.1415 199.816 24.0775 199.176L22.4135 200.264C21.8802 200.605 21.4108 200.851 21.0055 201C20.6002 201.149 20.1735 201.224 19.7255 201.224C18.9362 201.224 18.3175 201.021 17.8695 200.616C17.4428 200.189 17.2295 199.656 17.2295 199.016C17.2295 198.376 17.4855 197.821 17.9975 197.352C18.5095 196.883 19.3522 196.435 20.5255 196.008L24.0455 194.696V192.52C24.0455 190.131 23.3735 188.936 22.0295 188.936C21.3042 188.936 20.7495 189.181 20.3655 189.672C20.0028 190.141 19.7575 190.685 19.6295 191.304C19.5655 191.688 19.4482 192.008 19.2775 192.264C19.1068 192.499 18.8188 192.616 18.4135 192.616C18.0722 192.616 17.8055 192.52 17.6135 192.328C17.4428 192.136 17.3575 191.912 17.3575 191.656C17.3575 191.144 17.6882 190.632 18.3495 190.12C19.0108 189.608 19.8002 189.181 20.7175 188.84C21.6348 188.499 22.4562 188.328 23.1815 188.328C24.0562 188.328 24.7175 188.605 25.1655 189.16C25.6135 189.715 25.8375 190.515 25.8375 191.56V197.544C25.8375 198.291 25.9335 198.835 26.1255 199.176C26.3175 199.517 26.6375 199.688 27.0855 199.688C27.4908 199.688 28.0135 199.549 28.6535 199.272H28.7175ZM24.0455 198.728V198.568V195.144L21.0695 196.296C20.4722 196.531 20.0348 196.808 19.7575 197.128C19.5015 197.427 19.3735 197.789 19.3735 198.216C19.3735 198.728 19.5335 199.165 19.8535 199.528C20.1948 199.869 20.6322 200.04 21.1655 200.04C21.5922 200.04 22.1042 199.869 22.7015 199.528L24.0455 198.728ZM30.1238 201C30.0598 201 30.0278 200.936 30.0278 200.808C30.0278 200.68 30.0598 200.616 30.1238 200.616C30.6998 200.616 31.1264 200.563 31.4038 200.456C31.6811 200.328 31.8731 200.115 31.9798 199.816C32.0864 199.496 32.1398 199.027 32.1398 198.408V181.864C32.1398 181.096 32.0651 180.541 31.9158 180.2C31.7664 179.859 31.4998 179.688 31.1158 179.688C30.7958 179.688 30.3051 179.837 29.6438 180.136H29.5798C29.5158 180.136 29.4624 180.083 29.4198 179.976C29.3984 179.869 29.4198 179.805 29.4838 179.784L33.5798 177.832C33.6224 177.811 33.6758 177.8 33.7398 177.8C33.7824 177.8 33.8358 177.832 33.8998 177.896C33.9851 177.939 34.0278 177.992 34.0278 178.056V198.408C34.0278 199.027 34.0704 199.485 34.1558 199.784C34.2624 200.083 34.4544 200.296 34.7318 200.424C35.0091 200.552 35.4358 200.616 36.0118 200.616C36.0758 200.616 36.1078 200.68 36.1078 200.808C36.1078 200.936 36.0758 201 36.0118 201C35.5424 201 35.1584 200.989 34.8598 200.968L33.0677 200.936L31.3398 200.968C31.0411 200.989 30.6358 201 30.1238 201ZM50.3738 199.272C50.4591 199.272 50.5124 199.325 50.5338 199.432C50.5551 199.517 50.5231 199.581 50.4378 199.624L47.1418 201.192C47.0564 201.235 46.9711 201.256 46.8858 201.256C46.6084 201.256 46.3631 201.075 46.1498 200.712C45.9364 200.328 45.7978 199.816 45.7338 199.176L44.0698 200.264C43.5364 200.605 43.0671 200.851 42.6618 201C42.2564 201.149 41.8298 201.224 41.3818 201.224C40.5924 201.224 39.9738 201.021 39.5258 200.616C39.0991 200.189 38.8858 199.656 38.8858 199.016C38.8858 198.376 39.1418 197.821 39.6538 197.352C40.1658 196.883 41.0084 196.435 42.1818 196.008L45.7018 194.696V192.52C45.7018 190.131 45.0298 188.936 43.6858 188.936C42.9604 188.936 42.4058 189.181 42.0218 189.672C41.6591 190.141 41.4138 190.685 41.2858 191.304C41.2218 191.688 41.1044 192.008 40.9338 192.264C40.7631 192.499 40.4751 192.616 40.0698 192.616C39.7284 192.616 39.4618 192.52 39.2698 192.328C39.0991 192.136 39.0138 191.912 39.0138 191.656C39.0138 191.144 39.3444 190.632 40.0058 190.12C40.6671 189.608 41.4564 189.181 42.3738 188.84C43.2911 188.499 44.1124 188.328 44.8378 188.328C45.7124 188.328 46.3738 188.605 46.8218 189.16C47.2698 189.715 47.4938 190.515 47.4938 191.56V197.544C47.4938 198.291 47.5898 198.835 47.7818 199.176C47.9738 199.517 48.2938 199.688 48.7418 199.688C49.1471 199.688 49.6698 199.549 50.3098 199.272H50.3738ZM45.7018 198.728V198.568V195.144L42.7258 196.296C42.1284 196.531 41.6911 196.808 41.4138 197.128C41.1578 197.427 41.0298 197.789 41.0298 198.216C41.0298 198.728 41.1898 199.165 41.5098 199.528C41.8511 199.869 42.2884 200.04 42.8218 200.04C43.2484 200.04 43.7604 199.869 44.3578 199.528L45.7018 198.728ZM63.917 188.648C63.9597 188.648 63.981 188.712 63.981 188.84C63.981 188.968 63.9597 189.032 63.917 189.032C63.3837 189.032 62.925 189.213 62.541 189.576C62.157 189.917 61.7943 190.515 61.453 191.368L57.453 200.968C57.4103 201.075 57.293 201.128 57.101 201.128C56.909 201.128 56.7917 201.075 56.749 200.968L52.269 191.304C51.8423 190.387 51.4797 189.779 51.181 189.48C50.9037 189.181 50.5517 189.032 50.125 189.032C50.061 189.032 50.029 188.968 50.029 188.84C50.029 188.712 50.061 188.648 50.125 188.648C50.5517 188.648 50.8823 188.659 51.117 188.68L52.333 188.712L54.413 188.68C54.733 188.659 55.1597 188.648 55.693 188.648C55.757 188.648 55.789 188.712 55.789 188.84C55.789 188.968 55.757 189.032 55.693 189.032C54.413 189.032 53.773 189.288 53.773 189.8C53.773 189.949 53.8157 190.109 53.901 190.28L57.805 198.536L60.813 191.208C60.9623 190.803 61.037 190.493 61.037 190.28C61.037 189.853 60.8343 189.544 60.429 189.352C60.0237 189.139 59.3837 189.032 58.509 189.032C58.4663 189.032 58.445 188.968 58.445 188.84C58.445 188.712 58.4663 188.648 58.509 188.648C59.085 188.648 59.5223 188.659 59.821 188.68L61.741 188.712L62.893 188.68C63.1063 188.659 63.4477 188.648 63.917 188.648ZM72.8 188.36C73.2693 188.36 73.7173 188.488 74.144 188.744C74.5707 189 74.784 189.309 74.784 189.672C74.784 189.949 74.688 190.184 74.496 190.376C74.3253 190.568 74.0693 190.664 73.728 190.664C73.536 190.664 73.3653 190.632 73.216 190.568C73.088 190.483 72.928 190.365 72.736 190.216C72.544 190.045 72.3627 189.917 72.192 189.832C72.0213 189.747 71.8187 189.704 71.584 189.704C71.3067 189.704 71.008 189.821 70.688 190.056C70.3893 190.291 69.9093 190.792 69.248 191.56V198.408C69.248 199.048 69.3227 199.517 69.472 199.816C69.6427 200.115 69.9413 200.328 70.368 200.456C70.7947 200.563 71.456 200.616 72.352 200.616C72.4373 200.616 72.48 200.68 72.48 200.808C72.48 200.936 72.4373 201 72.352 201C71.6693 201 71.1253 200.989 70.72 200.968L68.352 200.936L66.592 200.968C66.3147 200.989 65.9307 201 65.44 201C65.376 201 65.344 200.936 65.344 200.808C65.344 200.68 65.376 200.616 65.44 200.616C66.016 200.616 66.4427 200.563 66.72 200.456C66.9973 200.328 67.1787 200.115 67.264 199.816C67.3707 199.517 67.424 199.048 67.424 198.408V192.072C67.424 191.347 67.3387 190.824 67.168 190.504C66.9973 190.184 66.7093 190.024 66.304 190.024C65.9627 190.024 65.3867 190.184 64.576 190.504H64.512C64.4267 190.504 64.3627 190.461 64.32 190.376C64.2987 190.269 64.3307 190.195 64.416 190.152L68.128 188.392L68.32 188.36C68.512 188.36 68.7147 188.605 68.928 189.096C69.1413 189.587 69.248 190.216 69.248 190.984V191.016C70.1227 189.992 70.816 189.299 71.328 188.936C71.84 188.552 72.3307 188.36 72.8 188.36ZM88.4363 199.272C88.5216 199.272 88.5749 199.325 88.5963 199.432C88.6176 199.517 88.5856 199.581 88.5003 199.624L85.2043 201.192C85.1189 201.235 85.0336 201.256 84.9483 201.256C84.6709 201.256 84.4256 201.075 84.2123 200.712C83.9989 200.328 83.8603 199.816 83.7963 199.176L82.1323 200.264C81.5989 200.605 81.1296 200.851 80.7243 201C80.3189 201.149 79.8923 201.224 79.4443 201.224C78.6549 201.224 78.0363 201.021 77.5883 200.616C77.1616 200.189 76.9483 199.656 76.9483 199.016C76.9483 198.376 77.2043 197.821 77.7163 197.352C78.2283 196.883 79.0709 196.435 80.2443 196.008L83.7643 194.696V192.52C83.7643 190.131 83.0923 188.936 81.7483 188.936C81.0229 188.936 80.4683 189.181 80.0843 189.672C79.7216 190.141 79.4763 190.685 79.3483 191.304C79.2843 191.688 79.1669 192.008 78.9963 192.264C78.8256 192.499 78.5376 192.616 78.1323 192.616C77.7909 192.616 77.5243 192.52 77.3323 192.328C77.1616 192.136 77.0763 191.912 77.0763 191.656C77.0763 191.144 77.4069 190.632 78.0683 190.12C78.7296 189.608 79.5189 189.181 80.4363 188.84C81.3536 188.499 82.1749 188.328 82.9003 188.328C83.7749 188.328 84.4363 188.605 84.8843 189.16C85.3323 189.715 85.5563 190.515 85.5563 191.56V197.544C85.5563 198.291 85.6523 198.835 85.8443 199.176C86.0363 199.517 86.3563 199.688 86.8043 199.688C87.2096 199.688 87.7323 199.549 88.3723 199.272H88.4363ZM83.7643 198.728V198.568V195.144L80.7883 196.296C80.1909 196.531 79.7536 196.808 79.4763 197.128C79.2203 197.427 79.0923 197.789 79.0923 198.216C79.0923 198.728 79.2523 199.165 79.5723 199.528C79.9136 199.869 80.3509 200.04 80.8843 200.04C81.3109 200.04 81.8229 199.869 82.4203 199.528L83.7643 198.728ZM91.7945 190.6C91.7945 191.347 92.0398 191.944 92.5305 192.392C93.0212 192.819 93.7358 193.277 94.6745 193.768C95.4212 194.152 95.9972 194.483 96.4025 194.76C96.8292 195.037 97.1918 195.4 97.4905 195.848C97.7892 196.296 97.9385 196.84 97.9385 197.48C97.9385 198.568 97.5332 199.485 96.7225 200.232C95.9118 200.979 94.8132 201.352 93.4265 201.352C92.2958 201.352 91.2718 201.032 90.3545 200.392C90.2265 200.307 90.1625 200.179 90.1625 200.008L90.0985 197.512C90.0985 197.448 90.1518 197.416 90.2585 197.416C90.3865 197.395 90.4612 197.416 90.4825 197.48C90.8878 198.547 91.4105 199.357 92.0505 199.912C92.7118 200.467 93.4692 200.744 94.3225 200.744C95.0265 200.744 95.5598 200.573 95.9225 200.232C96.2852 199.891 96.4452 199.389 96.4025 198.728C96.3812 197.917 96.1252 197.299 95.6345 196.872C95.1652 196.424 94.4505 195.965 93.4905 195.496C92.7865 195.155 92.2212 194.845 91.7945 194.568C91.3892 194.291 91.0372 193.928 90.7385 193.48C90.4612 193.032 90.3225 192.477 90.3225 191.816C90.3225 190.664 90.7492 189.789 91.6025 189.192C92.4772 188.573 93.5012 188.264 94.6745 188.264C95.5278 188.264 96.3065 188.424 97.0105 188.744C97.1385 188.787 97.2132 188.84 97.2345 188.904C97.2772 188.947 97.2985 189.011 97.2985 189.096C97.2985 189.523 97.2878 189.853 97.2665 190.088L97.2345 191.432C97.2345 191.475 97.1705 191.496 97.0425 191.496C96.9145 191.496 96.8505 191.475 96.8505 191.432C96.8505 190.984 96.6798 190.568 96.3385 190.184C95.9972 189.779 95.5705 189.459 95.0585 189.224C94.5465 188.989 94.0345 188.872 93.5225 188.872C92.9892 188.872 92.5625 189.021 92.2425 189.32C91.9438 189.597 91.7945 190.024 91.7945 190.6ZM120.027 180.648C121.371 180.648 122.502 180.744 123.419 180.936C124.336 181.128 125.254 181.459 126.171 181.928C126.32 182.013 126.406 182.088 126.427 182.152C126.448 182.216 126.48 182.376 126.523 182.632L126.907 186.44C126.907 186.504 126.843 186.547 126.715 186.568C126.608 186.568 126.544 186.536 126.523 186.472C125.542 182.909 123.344 181.128 119.931 181.128C118.139 181.128 116.56 181.523 115.195 182.312C113.83 183.101 112.774 184.232 112.027 185.704C111.28 187.155 110.907 188.851 110.907 190.792C110.907 192.648 111.312 194.355 112.123 195.912C112.955 197.448 114.064 198.664 115.451 199.56C116.859 200.456 118.384 200.904 120.027 200.904C121.776 200.904 123.195 200.477 124.283 199.624C125.371 198.771 126.203 197.469 126.779 195.72C126.779 195.677 126.832 195.656 126.939 195.656C127.088 195.656 127.163 195.688 127.163 195.752L126.843 199.272C126.822 199.528 126.79 199.688 126.747 199.752C126.704 199.816 126.619 199.891 126.491 199.976C125.382 200.509 124.336 200.883 123.355 201.096C122.395 201.309 121.286 201.416 120.027 201.416C117.787 201.416 115.782 200.979 114.011 200.104C112.262 199.208 110.896 197.96 109.915 196.36C108.934 194.76 108.443 192.925 108.443 190.856C108.443 188.851 108.944 187.08 109.947 185.544C110.95 183.987 112.326 182.781 114.075 181.928C115.846 181.075 117.83 180.648 120.027 180.648ZM142.093 199.272C142.178 199.272 142.231 199.325 142.253 199.432C142.274 199.517 142.242 199.581 142.157 199.624L138.861 201.192C138.775 201.235 138.69 201.256 138.605 201.256C138.327 201.256 138.082 201.075 137.869 200.712C137.655 200.328 137.517 199.816 137.453 199.176L135.789 200.264C135.255 200.605 134.786 200.851 134.381 201C133.975 201.149 133.549 201.224 133.101 201.224C132.311 201.224 131.693 201.021 131.245 200.616C130.818 200.189 130.605 199.656 130.605 199.016C130.605 198.376 130.861 197.821 131.373 197.352C131.885 196.883 132.727 196.435 133.901 196.008L137.421 194.696V192.52C137.421 190.131 136.749 188.936 135.405 188.936C134.679 188.936 134.125 189.181 133.741 189.672C133.378 190.141 133.133 190.685 133.005 191.304C132.941 191.688 132.823 192.008 132.653 192.264C132.482 192.499 132.194 192.616 131.789 192.616C131.447 192.616 131.181 192.52 130.989 192.328C130.818 192.136 130.733 191.912 130.733 191.656C130.733 191.144 131.063 190.632 131.725 190.12C132.386 189.608 133.175 189.181 134.093 188.84C135.01 188.499 135.831 188.328 136.557 188.328C137.431 188.328 138.093 188.605 138.541 189.16C138.989 189.715 139.213 190.515 139.213 191.56V197.544C139.213 198.291 139.309 198.835 139.501 199.176C139.693 199.517 140.013 199.688 140.461 199.688C140.866 199.688 141.389 199.549 142.029 199.272H142.093ZM137.421 198.728V198.568V195.144L134.445 196.296C133.847 196.531 133.41 196.808 133.133 197.128C132.877 197.427 132.749 197.789 132.749 198.216C132.749 198.728 132.909 199.165 133.229 199.528C133.57 199.869 134.007 200.04 134.541 200.04C134.967 200.04 135.479 199.869 136.077 199.528L137.421 198.728ZM152.427 177.768C153.515 177.768 154.4 177.939 155.083 178.28C155.787 178.6 156.139 178.995 156.139 179.464C156.139 179.784 156.021 180.04 155.787 180.232C155.573 180.403 155.317 180.488 155.019 180.488C154.763 180.488 154.539 180.424 154.347 180.296C154.155 180.168 153.952 179.955 153.739 179.656C153.419 179.208 153.067 178.877 152.683 178.664C152.32 178.429 151.861 178.312 151.307 178.312C150.069 178.312 149.088 179.027 148.363 180.456C147.637 181.885 147.275 184.051 147.275 186.952V189C148.256 188.979 149.621 188.872 151.371 188.68C151.435 188.68 151.488 188.755 151.531 188.904C151.573 189.053 151.595 189.235 151.595 189.448C151.595 189.619 151.563 189.8 151.499 189.992C151.435 190.163 151.36 190.237 151.275 190.216C150.037 189.917 148.704 189.747 147.275 189.704V198.408C147.275 199.069 147.349 199.549 147.499 199.848C147.648 200.147 147.936 200.349 148.363 200.456C148.789 200.563 149.472 200.616 150.411 200.616C150.475 200.616 150.507 200.68 150.507 200.808C150.507 200.936 150.475 201 150.411 201L148.363 200.968C147.915 200.947 147.232 200.936 146.315 200.936L144.523 200.968C144.224 200.989 143.797 201 143.243 201C143.179 201 143.147 200.936 143.147 200.808C143.147 200.68 143.179 200.616 143.243 200.616C143.883 200.616 144.352 200.563 144.651 200.456C144.949 200.328 145.152 200.115 145.259 199.816C145.387 199.517 145.451 199.048 145.451 198.408V191.208C145.451 190.653 145.397 190.269 145.291 190.056C145.184 189.821 144.971 189.672 144.651 189.608C144.352 189.523 143.84 189.48 143.115 189.48C143.051 189.48 143.019 189.416 143.019 189.288C143.019 189.139 143.051 189.064 143.115 189.064C143.989 189.064 144.576 188.968 144.875 188.776C145.195 188.563 145.365 188.179 145.387 187.624C145.493 184.168 146.123 181.661 147.275 180.104C148.448 178.547 150.165 177.768 152.427 177.768ZM163.457 199.208C163.521 199.208 163.574 199.251 163.617 199.336C163.681 199.4 163.691 199.464 163.649 199.528C162.241 200.765 160.683 201.384 158.977 201.384C157.739 201.384 156.683 201.096 155.809 200.52C154.934 199.944 154.262 199.187 153.793 198.248C153.345 197.309 153.121 196.307 153.121 195.24C153.121 193.981 153.419 192.829 154.017 191.784C154.614 190.717 155.425 189.885 156.449 189.288C157.494 188.669 158.635 188.36 159.873 188.36C161.067 188.36 161.985 188.68 162.625 189.32C163.265 189.96 163.585 190.856 163.585 192.008C163.585 192.307 163.553 192.52 163.489 192.648C163.446 192.776 163.361 192.84 163.233 192.84L155.297 192.872C155.254 193.341 155.233 193.725 155.233 194.024C155.233 195.88 155.67 197.384 156.545 198.536C157.419 199.688 158.646 200.264 160.225 200.264C160.865 200.264 161.409 200.179 161.857 200.008C162.326 199.837 162.849 199.571 163.425 199.208H163.457ZM158.817 189C157.899 189 157.142 189.309 156.545 189.928C155.947 190.525 155.553 191.368 155.361 192.456L161.441 192.328C161.441 191.24 161.206 190.419 160.737 189.864C160.267 189.288 159.627 189 158.817 189ZM169.415 184.616C168.967 184.616 168.615 184.499 168.359 184.264C168.125 184.029 168.007 183.699 168.007 183.272C168.007 182.845 168.125 182.515 168.359 182.28C168.615 182.045 168.967 181.928 169.415 181.928C169.842 181.928 170.173 182.045 170.407 182.28C170.642 182.515 170.759 182.845 170.759 183.272C170.759 183.699 170.642 184.029 170.407 184.264C170.173 184.499 169.842 184.616 169.415 184.616ZM166.727 201C166.685 201 166.663 200.936 166.663 200.808C166.663 200.68 166.685 200.616 166.727 200.616C167.303 200.616 167.73 200.563 168.007 200.456C168.306 200.328 168.509 200.115 168.615 199.816C168.722 199.496 168.775 199.027 168.775 198.408V192.424C168.775 191.656 168.69 191.101 168.519 190.76C168.37 190.419 168.103 190.248 167.719 190.248C167.335 190.248 166.855 190.397 166.279 190.696H166.247C166.162 190.696 166.098 190.643 166.055 190.536C166.013 190.429 166.023 190.355 166.087 190.312L170.247 188.392L170.375 188.36C170.418 188.36 170.471 188.392 170.535 188.456C170.599 188.499 170.631 188.552 170.631 188.616C170.631 188.765 170.621 189.192 170.599 189.896C170.578 190.6 170.567 191.432 170.567 192.392V198.408C170.567 199.048 170.621 199.517 170.727 199.816C170.834 200.115 171.026 200.328 171.303 200.456C171.581 200.563 172.007 200.616 172.583 200.616C172.647 200.616 172.679 200.68 172.679 200.808C172.679 200.936 172.647 201 172.583 201C172.093 201 171.698 200.989 171.399 200.968L169.671 200.936L167.943 200.968C167.645 200.989 167.239 201 166.727 201ZM189.621 200.616C189.685 200.616 189.717 200.68 189.717 200.808C189.717 200.936 189.685 201 189.621 201C189.131 201 188.747 200.989 188.469 200.968L186.741 200.936L184.981 200.968C184.704 200.989 184.32 201 183.829 201C183.765 201 183.733 200.936 183.733 200.808C183.733 200.68 183.765 200.616 183.829 200.616C184.405 200.616 184.832 200.563 185.109 200.456C185.387 200.328 185.568 200.115 185.653 199.816C185.76 199.517 185.813 199.048 185.813 198.408V193.224C185.813 191.965 185.568 191.037 185.077 190.44C184.608 189.843 183.872 189.544 182.869 189.544C182.208 189.544 181.536 189.725 180.853 190.088C180.192 190.429 179.584 190.909 179.029 191.528V198.408C179.029 199.048 179.072 199.517 179.157 199.816C179.264 200.115 179.456 200.328 179.733 200.456C180.011 200.563 180.437 200.616 181.013 200.616C181.077 200.616 181.109 200.68 181.109 200.808C181.109 200.936 181.077 201 181.013 201C180.523 201 180.139 200.989 179.861 200.968L178.133 200.936L176.373 200.968C176.096 200.989 175.712 201 175.221 201C175.157 201 175.125 200.936 175.125 200.808C175.125 200.68 175.157 200.616 175.221 200.616C175.797 200.616 176.224 200.563 176.501 200.456C176.779 200.328 176.96 200.115 177.045 199.816C177.152 199.517 177.205 199.048 177.205 198.408V192.072C177.205 191.347 177.12 190.824 176.949 190.504C176.779 190.184 176.491 190.024 176.085 190.024C175.744 190.024 175.168 190.184 174.357 190.504H174.293C174.208 190.504 174.144 190.461 174.101 190.376C174.08 190.269 174.112 190.195 174.197 190.152L177.909 188.392L178.101 188.36C178.293 188.36 178.496 188.605 178.709 189.096C178.923 189.587 179.029 190.216 179.029 190.984C179.84 190.045 180.64 189.352 181.429 188.904C182.24 188.456 183.072 188.232 183.925 188.232C185.12 188.232 186.037 188.563 186.677 189.224C187.317 189.885 187.637 190.856 187.637 192.136V198.408C187.637 199.048 187.68 199.517 187.765 199.816C187.872 200.115 188.064 200.328 188.341 200.456C188.619 200.563 189.045 200.616 189.621 200.616ZM203.593 199.272C203.678 199.272 203.731 199.325 203.753 199.432C203.774 199.517 203.742 199.581 203.657 199.624L200.361 201.192C200.275 201.235 200.19 201.256 200.105 201.256C199.827 201.256 199.582 201.075 199.369 200.712C199.155 200.328 199.017 199.816 198.953 199.176L197.289 200.264C196.755 200.605 196.286 200.851 195.881 201C195.475 201.149 195.049 201.224 194.601 201.224C193.811 201.224 193.193 201.021 192.745 200.616C192.318 200.189 192.105 199.656 192.105 199.016C192.105 198.376 192.361 197.821 192.873 197.352C193.385 196.883 194.227 196.435 195.401 196.008L198.921 194.696V192.52C198.921 190.131 198.249 188.936 196.905 188.936C196.179 188.936 195.625 189.181 195.241 189.672C194.878 190.141 194.633 190.685 194.505 191.304C194.441 191.688 194.323 192.008 194.153 192.264C193.982 192.499 193.694 192.616 193.289 192.616C192.947 192.616 192.681 192.52 192.489 192.328C192.318 192.136 192.233 191.912 192.233 191.656C192.233 191.144 192.563 190.632 193.225 190.12C193.886 189.608 194.675 189.181 195.593 188.84C196.51 188.499 197.331 188.328 198.057 188.328C198.931 188.328 199.593 188.605 200.041 189.16C200.489 189.715 200.713 190.515 200.713 191.56V197.544C200.713 198.291 200.809 198.835 201.001 199.176C201.193 199.517 201.513 199.688 201.961 199.688C202.366 199.688 202.889 199.549 203.529 199.272H203.593ZM198.921 198.728V198.568V195.144L195.945 196.296C195.347 196.531 194.91 196.808 194.633 197.128C194.377 197.427 194.249 197.789 194.249 198.216C194.249 198.728 194.409 199.165 194.729 199.528C195.07 199.869 195.507 200.04 196.041 200.04C196.467 200.04 196.979 199.869 197.577 199.528L198.921 198.728ZM219.911 199.176C219.996 199.176 220.049 199.229 220.071 199.336C220.113 199.443 220.103 199.517 220.039 199.56L216.519 201.224C216.391 201.267 216.305 201.288 216.263 201.288C215.985 201.288 215.751 201.053 215.559 200.584C215.367 200.115 215.26 199.464 215.239 198.632C214.449 199.464 213.617 200.136 212.743 200.648C211.889 201.16 210.929 201.416 209.863 201.416C208.967 201.416 208.135 201.16 207.367 200.648C206.62 200.136 206.012 199.421 205.543 198.504C205.095 197.565 204.871 196.499 204.871 195.304C204.871 193.789 205.244 192.499 205.991 191.432C206.737 190.365 207.676 189.565 208.807 189.032C209.937 188.499 211.057 188.232 212.167 188.232C213.297 188.232 214.321 188.509 215.239 189.064V181.896C215.239 181.128 215.153 180.573 214.983 180.232C214.833 179.891 214.567 179.72 214.183 179.72C213.905 179.72 213.415 179.869 212.711 180.168H212.647C212.561 180.168 212.497 180.125 212.455 180.04C212.433 179.933 212.455 179.859 212.519 179.816L216.583 177.832C216.625 177.811 216.679 177.8 216.743 177.8C216.785 177.8 216.839 177.832 216.903 177.896C216.988 177.939 217.031 177.992 217.031 178.056V197.48C217.031 198.248 217.116 198.803 217.287 199.144C217.479 199.485 217.777 199.656 218.183 199.656C218.801 199.656 219.356 199.507 219.847 199.208L219.911 199.176ZM211.111 200.264C211.879 200.264 212.593 200.083 213.255 199.72C213.916 199.336 214.577 198.803 215.239 198.12V191.08C214.727 190.376 214.161 189.832 213.543 189.448C212.924 189.064 212.177 188.872 211.303 188.872C209.959 188.872 208.892 189.352 208.103 190.312C207.335 191.251 206.951 192.595 206.951 194.344C206.951 195.517 207.132 196.552 207.495 197.448C207.857 198.344 208.348 199.037 208.967 199.528C209.607 200.019 210.321 200.264 211.111 200.264ZM233.374 199.272C233.459 199.272 233.512 199.325 233.534 199.432C233.555 199.517 233.523 199.581 233.438 199.624L230.142 201.192C230.056 201.235 229.971 201.256 229.886 201.256C229.608 201.256 229.363 201.075 229.15 200.712C228.936 200.328 228.798 199.816 228.734 199.176L227.07 200.264C226.536 200.605 226.067 200.851 225.662 201C225.256 201.149 224.83 201.224 224.382 201.224C223.592 201.224 222.974 201.021 222.526 200.616C222.099 200.189 221.886 199.656 221.886 199.016C221.886 198.376 222.142 197.821 222.654 197.352C223.166 196.883 224.008 196.435 225.182 196.008L228.702 194.696V192.52C228.702 190.131 228.03 188.936 226.686 188.936C225.96 188.936 225.406 189.181 225.022 189.672C224.659 190.141 224.414 190.685 224.286 191.304C224.222 191.688 224.104 192.008 223.934 192.264C223.763 192.499 223.475 192.616 223.07 192.616C222.728 192.616 222.462 192.52 222.27 192.328C222.099 192.136 222.014 191.912 222.014 191.656C222.014 191.144 222.344 190.632 223.006 190.12C223.667 189.608 224.456 189.181 225.374 188.84C226.291 188.499 227.112 188.328 227.838 188.328C228.712 188.328 229.374 188.605 229.822 189.16C230.27 189.715 230.494 190.515 230.494 191.56V197.544C230.494 198.291 230.59 198.835 230.782 199.176C230.974 199.517 231.294 199.688 231.742 199.688C232.147 199.688 232.67 199.549 233.31 199.272H233.374ZM228.702 198.728V198.568V195.144L225.726 196.296C225.128 196.531 224.691 196.808 224.414 197.128C224.158 197.427 224.03 197.789 224.03 198.216C224.03 198.728 224.19 199.165 224.51 199.528C224.851 199.869 225.288 200.04 225.822 200.04C226.248 200.04 226.76 199.869 227.358 199.528L228.702 198.728ZM236.732 190.6C236.732 191.347 236.977 191.944 237.468 192.392C237.959 192.819 238.673 193.277 239.612 193.768C240.359 194.152 240.935 194.483 241.34 194.76C241.767 195.037 242.129 195.4 242.428 195.848C242.727 196.296 242.876 196.84 242.876 197.48C242.876 198.568 242.471 199.485 241.66 200.232C240.849 200.979 239.751 201.352 238.364 201.352C237.233 201.352 236.209 201.032 235.292 200.392C235.164 200.307 235.1 200.179 235.1 200.008L235.036 197.512C235.036 197.448 235.089 197.416 235.196 197.416C235.324 197.395 235.399 197.416 235.42 197.48C235.825 198.547 236.348 199.357 236.988 199.912C237.649 200.467 238.407 200.744 239.26 200.744C239.964 200.744 240.497 200.573 240.86 200.232C241.223 199.891 241.383 199.389 241.34 198.728C241.319 197.917 241.063 197.299 240.572 196.872C240.103 196.424 239.388 195.965 238.428 195.496C237.724 195.155 237.159 194.845 236.732 194.568C236.327 194.291 235.975 193.928 235.676 193.48C235.399 193.032 235.26 192.477 235.26 191.816C235.26 190.664 235.687 189.789 236.54 189.192C237.415 188.573 238.439 188.264 239.612 188.264C240.465 188.264 241.244 188.424 241.948 188.744C242.076 188.787 242.151 188.84 242.172 188.904C242.215 188.947 242.236 189.011 242.236 189.096C242.236 189.523 242.225 189.853 242.204 190.088L242.172 191.432C242.172 191.475 242.108 191.496 241.98 191.496C241.852 191.496 241.788 191.475 241.788 191.432C241.788 190.984 241.617 190.568 241.276 190.184C240.935 189.779 240.508 189.459 239.996 189.224C239.484 188.989 238.972 188.872 238.46 188.872C237.927 188.872 237.5 189.021 237.18 189.32C236.881 189.597 236.732 190.024 236.732 190.6Z" fill="#F0F0F0"/>
<defs>
<clipPath id="clip0_0_1">
<rect width="127" height="162.034" fill="white" transform="translate(60)"/>
</clipPath>
</defs>
</svg>
