<svg width="83" height="85" viewBox="0 0 83 85" fill="none" xmlns="http://www.w3.org/2000/svg">
<path d="M7.398 68.552C8.154 68.552 8.79 68.606 9.306 68.714C9.822 68.822 10.338 69.008 10.854 69.272C10.938 69.32 10.986 69.362 10.998 69.398C11.01 69.434 11.028 69.524 11.052 69.668L11.268 71.81C11.268 71.846 11.232 71.87 11.16 71.882C11.1 71.882 11.064 71.864 11.052 71.828C10.5 69.824 9.264 68.822 7.344 68.822C6.336 68.822 5.448 69.044 4.68 69.488C3.912 69.932 3.318 70.568 2.898 71.396C2.478 72.212 2.268 73.166 2.268 74.258C2.268 75.302 2.496 76.262 2.952 77.138C3.42 78.002 4.044 78.686 4.824 79.19C5.616 79.694 6.474 79.946 7.398 79.946C8.382 79.946 9.18 79.706 9.792 79.226C10.404 78.746 10.872 78.014 11.196 77.03C11.196 77.006 11.226 76.994 11.286 76.994C11.37 76.994 11.412 77.012 11.412 77.048L11.232 79.028C11.22 79.172 11.202 79.262 11.178 79.298C11.154 79.334 11.106 79.376 11.034 79.424C10.41 79.724 9.822 79.934 9.27 80.054C8.73 80.174 8.106 80.234 7.398 80.234C6.138 80.234 5.01 79.988 4.014 79.496C3.03 78.992 2.262 78.29 1.71 77.39C1.158 76.49 0.882 75.458 0.882 74.294C0.882 73.166 1.164 72.17 1.728 71.306C2.292 70.43 3.066 69.752 4.05 69.272C5.046 68.792 6.162 68.552 7.398 68.552ZM20.9258 79.784C20.9618 79.784 20.9798 79.82 20.9798 79.892C20.9798 79.964 20.9618 80 20.9258 80C20.6498 80 20.4278 79.994 20.2598 79.982L19.2878 79.964L18.3158 79.982C18.1478 79.994 17.9258 80 17.6498 80C17.6138 80 17.5958 79.964 17.5958 79.892C17.5958 79.82 17.6138 79.784 17.6498 79.784C17.9738 79.784 18.2138 79.754 18.3698 79.694C18.5258 79.622 18.6338 79.502 18.6938 79.334C18.7538 79.154 18.7838 78.89 18.7838 78.542V75.68C18.7838 74.972 18.6458 74.45 18.3698 74.114C18.1058 73.766 17.6918 73.592 17.1278 73.592C16.7558 73.592 16.3778 73.694 15.9938 73.898C15.6098 74.09 15.2618 74.36 14.9498 74.708V78.542C14.9498 78.89 14.9798 79.154 15.0398 79.334C15.0998 79.502 15.2078 79.622 15.3638 79.694C15.5198 79.754 15.7598 79.784 16.0838 79.784C16.1198 79.784 16.1378 79.82 16.1378 79.892C16.1378 79.964 16.1198 80 16.0838 80C15.8078 80 15.5858 79.994 15.4178 79.982L14.4458 79.964L13.4738 79.982C13.3058 79.994 13.0838 80 12.8078 80C12.7718 80 12.7538 79.964 12.7538 79.892C12.7538 79.82 12.7718 79.784 12.8078 79.784C13.1318 79.784 13.3718 79.754 13.5278 79.694C13.6838 79.622 13.7918 79.502 13.8518 79.334C13.9118 79.154 13.9418 78.89 13.9418 78.542V69.236C13.9418 68.804 13.8998 68.492 13.8158 68.3C13.7318 68.108 13.5818 68.012 13.3658 68.012C13.1858 68.012 12.9098 68.096 12.5378 68.264H12.5018C12.4658 68.264 12.4358 68.234 12.4118 68.174C12.3878 68.114 12.3998 68.078 12.4478 68.066L14.7338 66.95H14.7878C14.8358 66.95 14.8718 66.968 14.8958 67.004C14.9318 67.028 14.9498 67.058 14.9498 67.094V74.402C15.4058 73.874 15.8558 73.49 16.2998 73.25C16.7558 72.998 17.2298 72.872 17.7218 72.872C18.3818 72.872 18.8918 73.058 19.2518 73.43C19.6118 73.802 19.7918 74.342 19.7918 75.05V78.542C19.7918 78.89 19.8218 79.154 19.8818 79.334C19.9418 79.502 20.0498 79.622 20.2058 79.694C20.3618 79.754 20.6018 79.784 20.9258 79.784ZM25.1023 71.468C25.1023 71.492 25.0783 71.504 25.0303 71.504C24.9943 71.504 24.9583 71.498 24.9223 71.486C24.8983 71.462 24.8923 71.444 24.9043 71.432L25.8403 67.112C25.8523 67.064 25.9723 67.01 26.2003 66.95C26.4403 66.878 26.6383 66.842 26.7943 66.842C26.9023 66.842 26.9503 66.866 26.9383 66.914L25.1023 71.468ZM28.7923 79.028C28.8403 79.028 28.8703 79.058 28.8823 79.118C28.8943 79.166 28.8763 79.202 28.8283 79.226L26.9743 80.108C26.9263 80.132 26.8783 80.144 26.8303 80.144C26.6743 80.144 26.5363 80.042 26.4163 79.838C26.2963 79.622 26.2183 79.334 26.1823 78.974L25.2463 79.586C24.9463 79.778 24.6823 79.916 24.4543 80C24.2263 80.084 23.9863 80.126 23.7343 80.126C23.2903 80.126 22.9423 80.012 22.6903 79.784C22.4503 79.544 22.3303 79.244 22.3303 78.884C22.3303 78.524 22.4743 78.212 22.7623 77.948C23.0503 77.684 23.5243 77.432 24.1843 77.192L26.1643 76.454V75.23C26.1643 73.886 25.7863 73.214 25.0303 73.214C24.6223 73.214 24.3103 73.352 24.0943 73.628C23.8903 73.892 23.7523 74.198 23.6803 74.546C23.6443 74.762 23.5783 74.942 23.4823 75.086C23.3863 75.218 23.2243 75.284 22.9963 75.284C22.8043 75.284 22.6543 75.23 22.5463 75.122C22.4503 75.014 22.4023 74.888 22.4023 74.744C22.4023 74.456 22.5883 74.168 22.9603 73.88C23.3323 73.592 23.7763 73.352 24.2923 73.16C24.8083 72.968 25.2703 72.872 25.6783 72.872C26.1703 72.872 26.5423 73.028 26.7943 73.34C27.0463 73.652 27.1723 74.102 27.1723 74.69V78.056C27.1723 78.476 27.2263 78.782 27.3343 78.974C27.4423 79.166 27.6223 79.262 27.8743 79.262C28.1023 79.262 28.3963 79.184 28.7563 79.028H28.7923ZM26.1643 78.722V78.632V76.706L24.4903 77.354C24.1543 77.486 23.9083 77.642 23.7523 77.822C23.6083 77.99 23.5363 78.194 23.5363 78.434C23.5363 78.722 23.6263 78.968 23.8063 79.172C23.9983 79.364 24.2443 79.46 24.5443 79.46C24.7843 79.46 25.0723 79.364 25.4083 79.172L26.1643 78.722ZM42.2193 79.784C42.2673 79.784 42.2913 79.82 42.2913 79.892C42.2913 79.964 42.2673 80 42.2193 80C41.9433 80 41.7213 79.994 41.5533 79.982L40.5813 79.964L39.6093 79.982C39.4413 79.994 39.2193 80 38.9433 80C38.9073 80 38.8893 79.964 38.8893 79.892C38.8893 79.82 38.9073 79.784 38.9433 79.784C39.2673 79.784 39.5073 79.754 39.6633 79.694C39.8193 79.622 39.9273 79.502 39.9873 79.334C40.0473 79.154 40.0773 78.89 40.0773 78.542V75.68C40.0773 74.972 39.9513 74.45 39.6993 74.114C39.4473 73.766 39.0573 73.592 38.5293 73.592C38.1693 73.592 37.8033 73.694 37.4313 73.898C37.0713 74.09 36.7353 74.366 36.4233 74.726C36.4353 74.786 36.4413 74.882 36.4413 75.014V78.542C36.4413 78.902 36.4713 79.166 36.5313 79.334C36.5913 79.502 36.6993 79.622 36.8553 79.694C37.0113 79.754 37.2513 79.784 37.5753 79.784C37.6113 79.784 37.6293 79.82 37.6293 79.892C37.6293 79.964 37.6113 80 37.5753 80C37.2993 80 37.0773 79.994 36.9093 79.982L35.9373 79.964L34.9473 79.982C34.7913 79.994 34.5753 80 34.2993 80C34.2633 80 34.2453 79.964 34.2453 79.892C34.2453 79.82 34.2633 79.784 34.2993 79.784C34.6233 79.784 34.8633 79.754 35.0193 79.694C35.1753 79.622 35.2773 79.502 35.3253 79.334C35.3853 79.166 35.4153 78.902 35.4153 78.542V75.68C35.4153 74.972 35.2893 74.45 35.0373 74.114C34.7853 73.766 34.4013 73.592 33.8853 73.592C33.5253 73.592 33.1653 73.688 32.8053 73.88C32.4453 74.072 32.1153 74.342 31.8153 74.69V78.542C31.8153 78.902 31.8393 79.166 31.8873 79.334C31.9473 79.502 32.0553 79.622 32.2113 79.694C32.3673 79.754 32.6073 79.784 32.9313 79.784C32.9673 79.784 32.9853 79.82 32.9853 79.892C32.9853 79.964 32.9673 80 32.9313 80C32.6553 80 32.4393 79.994 32.2833 79.982L31.3113 79.964L30.3213 79.982C30.1653 79.994 29.9493 80 29.6733 80C29.6373 80 29.6193 79.964 29.6193 79.892C29.6193 79.82 29.6373 79.784 29.6733 79.784C29.9973 79.784 30.2373 79.754 30.3933 79.694C30.5493 79.622 30.6513 79.502 30.6993 79.334C30.7593 79.166 30.7893 78.902 30.7893 78.542V74.978C30.7893 74.57 30.7413 74.276 30.6453 74.096C30.5493 73.916 30.3873 73.826 30.1593 73.826C29.9673 73.826 29.6433 73.916 29.1873 74.096H29.1513C29.1033 74.096 29.0673 74.072 29.0433 74.024C29.0313 73.964 29.0493 73.922 29.0973 73.898L31.1853 72.908L31.2933 72.89C31.4013 72.89 31.5153 73.028 31.6353 73.304C31.7553 73.58 31.8153 73.934 31.8153 74.366V74.384C32.2473 73.856 32.6793 73.472 33.1113 73.232C33.5433 72.992 33.9933 72.872 34.4613 72.872C35.0013 72.872 35.4393 73.004 35.7753 73.268C36.1113 73.532 36.3213 73.928 36.4053 74.456C36.8493 73.916 37.2933 73.52 37.7373 73.268C38.1813 73.004 38.6433 72.872 39.1233 72.872C39.7593 72.872 40.2453 73.058 40.5813 73.43C40.9293 73.79 41.1033 74.33 41.1033 75.05V78.542C41.1033 78.902 41.1273 79.166 41.1753 79.334C41.2353 79.502 41.3433 79.622 41.4993 79.694C41.6553 79.754 41.8953 79.784 42.2193 79.784ZM46.7498 80.234C46.0538 80.234 45.4358 80.066 44.8958 79.73C44.3678 79.382 43.9598 78.92 43.6718 78.344C43.3838 77.756 43.2398 77.12 43.2398 76.436C43.2398 75.656 43.4258 74.996 43.7978 74.456C44.1818 73.904 44.6678 73.496 45.2558 73.232C45.8558 72.956 46.4618 72.818 47.0738 72.818C47.7818 72.818 48.3998 72.992 48.9278 73.34C49.4558 73.688 49.8578 74.15 50.1338 74.726C50.4218 75.29 50.5658 75.89 50.5658 76.526C50.5658 77.27 50.3918 77.924 50.0438 78.488C49.6958 79.04 49.2278 79.472 48.6398 79.784C48.0638 80.084 47.4338 80.234 46.7498 80.234ZM47.2718 79.892C47.9318 79.892 48.4418 79.658 48.8018 79.19C49.1618 78.722 49.3418 78.002 49.3418 77.03C49.3418 76.286 49.2158 75.62 48.9638 75.032C48.7238 74.444 48.3878 73.988 47.9558 73.664C47.5238 73.328 47.0318 73.16 46.4798 73.16C45.8318 73.16 45.3278 73.394 44.9678 73.862C44.6198 74.33 44.4458 75.002 44.4458 75.878C44.4458 76.61 44.5658 77.282 44.8058 77.894C45.0458 78.506 45.3818 78.992 45.8138 79.352C46.2458 79.712 46.7318 79.892 47.2718 79.892ZM64.5611 79.784C64.6091 79.784 64.6331 79.82 64.6331 79.892C64.6331 79.964 64.6091 80 64.5611 80C64.2851 80 64.0631 79.994 63.8951 79.982L62.9231 79.964L61.9511 79.982C61.7831 79.994 61.5611 80 61.2851 80C61.2491 80 61.2311 79.964 61.2311 79.892C61.2311 79.82 61.2491 79.784 61.2851 79.784C61.6091 79.784 61.8491 79.754 62.0051 79.694C62.1611 79.622 62.2691 79.502 62.3291 79.334C62.3891 79.154 62.4191 78.89 62.4191 78.542V75.68C62.4191 74.972 62.2931 74.45 62.0411 74.114C61.7891 73.766 61.3991 73.592 60.8711 73.592C60.5111 73.592 60.1451 73.694 59.7731 73.898C59.4131 74.09 59.0771 74.366 58.7651 74.726C58.7771 74.786 58.7831 74.882 58.7831 75.014V78.542C58.7831 78.902 58.8131 79.166 58.8731 79.334C58.9331 79.502 59.0411 79.622 59.1971 79.694C59.3531 79.754 59.5931 79.784 59.9171 79.784C59.9531 79.784 59.9711 79.82 59.9711 79.892C59.9711 79.964 59.9531 80 59.9171 80C59.6411 80 59.4191 79.994 59.2511 79.982L58.2791 79.964L57.2891 79.982C57.1331 79.994 56.9171 80 56.6411 80C56.6051 80 56.5871 79.964 56.5871 79.892C56.5871 79.82 56.6051 79.784 56.6411 79.784C56.9651 79.784 57.2051 79.754 57.3611 79.694C57.5171 79.622 57.6191 79.502 57.6671 79.334C57.7271 79.166 57.7571 78.902 57.7571 78.542V75.68C57.7571 74.972 57.6311 74.45 57.3791 74.114C57.1271 73.766 56.7431 73.592 56.2271 73.592C55.8671 73.592 55.5071 73.688 55.1471 73.88C54.7871 74.072 54.4571 74.342 54.1571 74.69V78.542C54.1571 78.902 54.1811 79.166 54.2291 79.334C54.2891 79.502 54.3971 79.622 54.5531 79.694C54.7091 79.754 54.9491 79.784 55.2731 79.784C55.3091 79.784 55.3271 79.82 55.3271 79.892C55.3271 79.964 55.3091 80 55.2731 80C54.9971 80 54.7811 79.994 54.6251 79.982L53.6531 79.964L52.6631 79.982C52.5071 79.994 52.2911 80 52.0151 80C51.9791 80 51.9611 79.964 51.9611 79.892C51.9611 79.82 51.9791 79.784 52.0151 79.784C52.3391 79.784 52.5791 79.754 52.7351 79.694C52.8911 79.622 52.9931 79.502 53.0411 79.334C53.1011 79.166 53.1311 78.902 53.1311 78.542V74.978C53.1311 74.57 53.0831 74.276 52.9871 74.096C52.8911 73.916 52.7291 73.826 52.5011 73.826C52.3091 73.826 51.9851 73.916 51.5291 74.096H51.4931C51.4451 74.096 51.4091 74.072 51.3851 74.024C51.3731 73.964 51.3911 73.922 51.4391 73.898L53.5271 72.908L53.6351 72.89C53.7431 72.89 53.8571 73.028 53.9771 73.304C54.0971 73.58 54.1571 73.934 54.1571 74.366V74.384C54.5891 73.856 55.0211 73.472 55.4531 73.232C55.8851 72.992 56.3351 72.872 56.8031 72.872C57.3431 72.872 57.7811 73.004 58.1171 73.268C58.4531 73.532 58.6631 73.928 58.7471 74.456C59.1911 73.916 59.6351 73.52 60.0791 73.268C60.5231 73.004 60.9851 72.872 61.4651 72.872C62.1011 72.872 62.5871 73.058 62.9231 73.43C63.2711 73.79 63.4451 74.33 63.4451 75.05V78.542C63.4451 78.902 63.4691 79.166 63.5171 79.334C63.5771 79.502 63.6851 79.622 63.8411 79.694C63.9971 79.754 64.2371 79.784 64.5611 79.784ZM67.3996 70.784C67.1476 70.784 66.9496 70.718 66.8056 70.586C66.6736 70.454 66.6076 70.268 66.6076 70.028C66.6076 69.788 66.6736 69.602 66.8056 69.47C66.9496 69.338 67.1476 69.272 67.3996 69.272C67.6396 69.272 67.8256 69.338 67.9576 69.47C68.0896 69.602 68.1556 69.788 68.1556 70.028C68.1556 70.268 68.0896 70.454 67.9576 70.586C67.8256 70.718 67.6396 70.784 67.3996 70.784ZM65.8876 80C65.8636 80 65.8516 79.964 65.8516 79.892C65.8516 79.82 65.8636 79.784 65.8876 79.784C66.2116 79.784 66.4516 79.754 66.6076 79.694C66.7756 79.622 66.8896 79.502 66.9496 79.334C67.0096 79.154 67.0396 78.89 67.0396 78.542V75.176C67.0396 74.744 66.9916 74.432 66.8956 74.24C66.8116 74.048 66.6616 73.952 66.4456 73.952C66.2296 73.952 65.9596 74.036 65.6356 74.204H65.6176C65.5696 74.204 65.5336 74.174 65.5096 74.114C65.4856 74.054 65.4916 74.012 65.5276 73.988L67.8676 72.908L67.9396 72.89C67.9636 72.89 67.9936 72.908 68.0296 72.944C68.0656 72.968 68.0836 72.998 68.0836 73.034C68.0836 73.118 68.0776 73.358 68.0656 73.754C68.0536 74.15 68.0476 74.618 68.0476 75.158V78.542C68.0476 78.902 68.0776 79.166 68.1376 79.334C68.1976 79.502 68.3056 79.622 68.4616 79.694C68.6176 79.754 68.8576 79.784 69.1816 79.784C69.2176 79.784 69.2356 79.82 69.2356 79.892C69.2356 79.964 69.2176 80 69.1816 80C68.9056 80 68.6836 79.994 68.5156 79.982L67.5436 79.964L66.5716 79.982C66.4036 79.994 66.1756 80 65.8876 80ZM70.5755 80C70.5395 80 70.5215 79.964 70.5215 79.892C70.5215 79.82 70.5395 79.784 70.5755 79.784C70.8995 79.784 71.1395 79.754 71.2955 79.694C71.4515 79.622 71.5595 79.502 71.6195 79.334C71.6795 79.154 71.7095 78.89 71.7095 78.542V69.236C71.7095 68.804 71.6675 68.492 71.5835 68.3C71.4995 68.108 71.3495 68.012 71.1335 68.012C70.9535 68.012 70.6775 68.096 70.3055 68.264H70.2695C70.2335 68.264 70.2035 68.234 70.1795 68.174C70.1675 68.114 70.1795 68.078 70.2155 68.066L72.5195 66.968C72.5435 66.956 72.5735 66.95 72.6095 66.95C72.6335 66.95 72.6635 66.968 72.6995 67.004C72.7475 67.028 72.7715 67.058 72.7715 67.094V78.542C72.7715 78.89 72.7955 79.148 72.8435 79.316C72.9035 79.484 73.0115 79.604 73.1675 79.676C73.3235 79.748 73.5635 79.784 73.8875 79.784C73.9235 79.784 73.9415 79.82 73.9415 79.892C73.9415 79.964 73.9235 80 73.8875 80C73.6235 80 73.4075 79.994 73.2395 79.982L72.2315 79.964L71.2595 79.982C71.0915 79.994 70.8635 80 70.5755 80ZM81.9661 79.028C82.0141 79.028 82.0441 79.058 82.0561 79.118C82.0681 79.166 82.0501 79.202 82.0021 79.226L80.1481 80.108C80.1001 80.132 80.0521 80.144 80.0041 80.144C79.8481 80.144 79.7101 80.042 79.5901 79.838C79.4701 79.622 79.3921 79.334 79.3561 78.974L78.4201 79.586C78.1201 79.778 77.8561 79.916 77.6281 80C77.4001 80.084 77.1601 80.126 76.9081 80.126C76.4641 80.126 76.1161 80.012 75.8641 79.784C75.6241 79.544 75.5041 79.244 75.5041 78.884C75.5041 78.524 75.6481 78.212 75.9361 77.948C76.2241 77.684 76.6981 77.432 77.3581 77.192L79.3381 76.454V75.23C79.3381 73.886 78.9601 73.214 78.2041 73.214C77.7961 73.214 77.4841 73.352 77.2681 73.628C77.0641 73.892 76.9261 74.198 76.8541 74.546C76.8181 74.762 76.7521 74.942 76.6561 75.086C76.5601 75.218 76.3981 75.284 76.1701 75.284C75.9781 75.284 75.8281 75.23 75.7201 75.122C75.6241 75.014 75.5761 74.888 75.5761 74.744C75.5761 74.456 75.7621 74.168 76.1341 73.88C76.5061 73.592 76.9501 73.352 77.4661 73.16C77.9821 72.968 78.4441 72.872 78.8521 72.872C79.3441 72.872 79.7161 73.028 79.9681 73.34C80.2201 73.652 80.3461 74.102 80.3461 74.69V78.056C80.3461 78.476 80.4001 78.782 80.5081 78.974C80.6161 79.166 80.7961 79.262 81.0481 79.262C81.2761 79.262 81.5701 79.184 81.9301 79.028H81.9661ZM79.3381 78.722V78.632V76.706L77.6641 77.354C77.3281 77.486 77.0821 77.642 76.9261 77.822C76.7821 77.99 76.7101 78.194 76.7101 78.434C76.7101 78.722 76.8001 78.968 76.9801 79.172C77.1721 79.364 77.4181 79.46 77.7181 79.46C77.9581 79.46 78.2461 79.364 78.5821 79.172L79.3381 78.722Z" fill="#F0F0F0"/>
<g clip-path="url(#clip0_4_277)">
<path d="M39.7702 54.862C49.597 54.862 57.5633 53.9216 57.5633 52.7615C57.5633 51.6013 49.597 50.6609 39.7702 50.6609C29.9433 50.6609 21.9771 51.6013 21.9771 52.7615C21.9771 53.9216 29.9433 54.862 39.7702 54.862Z" fill="#E4E6DA"/>
<path fill-rule="evenodd" clip-rule="evenodd" d="M58.0352 39.9178C59.0289 37.3692 59.5402 34.6377 59.5402 31.8793H56.4264C56.4264 34.2158 55.9969 36.5297 55.1624 38.6883C54.3278 40.8472 53.1045 42.8087 51.5625 44.461C50.0202 46.1132 48.1894 47.4237 46.1746 48.3179C44.1599 49.2122 42.0004 49.6723 39.8195 49.6723C37.6387 49.6723 35.4792 49.2122 33.4644 48.3179C31.4495 47.4237 29.6188 46.1132 28.0767 44.461C26.5346 42.8087 25.3113 40.8472 24.4768 38.6883C23.6422 36.5297 23.2126 34.2158 23.2126 31.8793H20C20 34.6377 20.5114 37.3692 21.5049 39.9178C22.4984 42.4664 23.9547 44.782 25.7905 46.7325C27.6263 48.6831 29.8058 50.2304 32.2044 51.2861C34.603 52.3416 37.1738 52.885 39.7701 52.885C42.3664 52.885 44.9373 52.3416 47.3359 51.2861C49.7345 50.2304 51.9139 48.6831 53.7498 46.7325C55.5854 44.782 57.0418 42.4664 58.0352 39.9178Z" fill="#E4E6DA"/>
<path fill-rule="evenodd" clip-rule="evenodd" d="M53.5387 38.0263C54.2761 36.119 54.6634 34.0777 54.6795 32.0142C52.9834 32.2804 49.2795 32.9291 46.8132 33.8563C44.8544 34.5927 43.5212 35.8684 42.244 37.0904C40.5867 38.6762 39.0237 40.1718 36.3103 40.2816C34.154 40.3688 32.8353 40.1921 30.8735 39.2931C27.4472 37.7231 24.6953 31.8793 24.6953 31.8793C24.6953 33.9887 25.0831 36.0774 25.8365 38.0263C26.59 39.9754 27.6943 41.746 29.0865 43.2377C30.4786 44.7293 32.1314 45.9126 33.9503 46.7197C35.7693 47.5271 37.7188 47.9425 39.6877 47.9425C41.6565 47.9425 43.6061 47.5271 45.4251 46.7197C47.2439 45.9126 48.8967 44.7293 50.2888 43.2377C51.6811 41.746 52.7855 39.9754 53.5387 38.0263Z" fill="#253529"/>
<path fill-rule="evenodd" clip-rule="evenodd" d="M61.077 36.2467C60.4881 35.6637 59.7848 35.2095 59.0115 34.9127L56.8667 40.4998L53.8137 45.6471C54.5262 46.0697 55.3187 46.3398 56.1412 46.4402C56.9634 46.5408 57.7976 46.4693 58.5909 46.2306C59.3842 45.9919 60.1194 45.591 60.7498 45.0535C61.3802 44.516 61.892 43.8535 62.2531 43.1079C62.6141 42.3623 62.8165 41.5498 62.8472 40.7219C62.8781 39.894 62.7365 39.0689 62.4318 38.2986C62.1271 37.5281 61.6657 36.8294 61.077 36.2467ZM59.6303 38.1221C59.2849 37.7801 58.8719 37.5135 58.4179 37.3393L57.1591 40.6189L55.3669 43.6402C55.7853 43.8883 56.2504 44.0468 56.733 44.1058C57.2159 44.1646 57.7055 44.1229 58.1711 43.9828C58.6369 43.8426 59.0684 43.6074 59.4383 43.2918C59.8085 42.9765 60.109 42.5875 60.3208 42.1498C60.5328 41.7122 60.6515 41.2352 60.6695 40.7494C60.6876 40.2633 60.6045 39.7789 60.4256 39.3266C60.2469 38.8744 59.9761 38.4644 59.6303 38.1221Z" fill="#E4E6DA"/>
<path d="M34.3344 7.41382C34.3344 7.41382 33.712 11.1873 34.3344 13.4684C35.3607 17.2303 40.2956 17.1509 40.8832 21.0057C41.4288 24.5848 37.547 29.6551 37.547 29.6551C37.547 29.6551 38.1394 26.1104 37.547 23.9712C36.562 20.4144 32.0662 20.5264 31.2453 16.9282C30.3763 13.1195 34.3344 7.41382 34.3344 7.41382Z" fill="#253529"/>
<path d="M36.3103 11.3678C35.0046 6.88458 40.0172 0 40.0172 0C40.0172 0 38.0648 6.06244 39.2758 9.6379C40.5462 13.389 45.3334 13.1862 46.1953 17.0517C47.2063 21.5851 41.3764 27.9252 41.3764 27.9252C41.3764 27.9252 44.3612 22.1441 43.3534 18.5344C42.2981 14.7549 37.4075 15.1353 36.3103 11.3678Z" fill="#253529"/>
</g>
<defs>
<clipPath id="clip0_4_277">
<rect width="43" height="54.862" fill="white" transform="translate(20)"/>
</clipPath>
</defs>
</svg>
